<svg id="Layer_1" enable-background="new 0 0 512 512" height="512" viewBox="0 0 512 512" width="512" xmlns="http://www.w3.org/2000/svg"><g><g><path d="m112.581 448.493h-63.162c-7.657 0-14.086-5.768-14.912-13.381l-14.689-135.303c-.46-4.235.902-8.466 3.748-11.637 2.845-3.17 6.904-4.982 11.164-4.982h92.539c4.26 0 8.319 1.812 11.164 4.982 2.846 3.171 4.208 7.402 3.748 11.637l-14.688 135.303c-.826 7.613-7.255 13.381-14.912 13.381z" fill="#00429d"/></g><path d="m138.434 288.172c-2.845-3.17-6.904-4.982-11.164-4.982h-46.27v165.303h31.581c7.657 0 14.086-5.768 14.912-13.381l14.688-135.303c.461-4.235-.902-8.466-3.747-11.637z" fill="#00347b"/><g><path d="m120.6 329.02h-79.2c-22.828 0-41.4-18.663-41.4-41.604v-87.793c0-22.94 18.572-41.604 41.4-41.604h79.2c22.828 0 41.4 18.663 41.4 41.604v87.793c0 22.941-18.572 41.604-41.4 41.604z" fill="#bee75e"/></g><path d="m342.943 405.573-15.5-13.126c-6.322-5.355-15.787-4.567-21.141 1.753-1.952 2.306-3.079 5.03-3.427 7.82h-93.751c-.349-2.79-1.475-5.514-3.427-7.82-5.355-6.322-14.819-7.107-21.141-1.753l-15.5 13.126c-3.366 2.85-5.307 7.037-5.307 11.447s1.94 8.597 5.307 11.447l15.5 13.126c2.818 2.387 6.261 3.554 9.686 3.554 4.258 0 8.488-1.804 11.455-5.307 1.952-2.306 3.079-5.03 3.427-7.82h93.751c.349 2.79 1.475 5.514 3.427 7.82 2.968 3.503 7.197 5.307 11.455 5.307 3.425 0 6.867-1.167 9.686-3.554l15.5-13.126c3.366-2.85 5.307-7.037 5.307-11.447s-1.94-8.596-5.307-11.447z" fill="#ff8856"/><path d="m120.6 158.02h-39.6v171h39.6c22.828 0 41.4-18.663 41.4-41.604v-87.793c0-22.94-18.572-41.603-41.4-41.603z" fill="#00cb75"/><g><path d="m81 170.094c-29.386 0-53.293-23.907-53.293-53.293s23.907-53.294 53.293-53.294 53.293 23.908 53.293 53.294c0 29.385-23.907 53.293-53.293 53.293z" fill="#ffe4c1"/></g><path d="m81 63.507v106.587c29.386 0 53.293-23.907 53.293-53.293 0-29.387-23.907-53.294-53.293-53.294z" fill="#fdd1a3"/><g><path d="m462.581 448.493h-63.162c-7.657 0-14.086-5.768-14.912-13.381l-14.688-135.303c-.46-4.235.902-8.466 3.748-11.637 2.845-3.17 6.904-4.982 11.164-4.982h92.539c4.26 0 8.319 1.812 11.164 4.982 2.846 3.171 4.208 7.402 3.748 11.637l-14.688 135.303c-.827 7.613-7.256 13.381-14.913 13.381z" fill="#00429d"/></g><path d="m488.434 288.172c-2.845-3.17-6.904-4.982-11.164-4.982h-46.27v165.303h31.581c7.657 0 14.086-5.768 14.912-13.381l14.688-135.303c.461-4.235-.902-8.466-3.747-11.637z" fill="#00347b"/><g><path d="m470.6 329.02h-79.2c-22.828 0-41.4-18.663-41.4-41.604v-87.793c0-22.94 18.572-41.604 41.4-41.604h79.2c22.828 0 41.4 18.663 41.4 41.604v87.793c0 22.941-18.572 41.604-41.4 41.604z" fill="#7dd5f4"/></g><path d="m470.6 158.02h-39.6v171h39.6c22.828 0 41.4-18.663 41.4-41.604v-87.793c0-22.94-18.572-41.603-41.4-41.603z" fill="#4793ff"/><g><path d="m431 170.094c-29.386 0-53.293-23.907-53.293-53.293s23.907-53.294 53.293-53.294 53.293 23.908 53.293 53.294c0 29.385-23.907 53.293-53.293 53.293z" fill="#ffe4c1"/></g><path d="m431 63.507v106.587c29.386 0 53.293-23.907 53.293-53.293 0-29.387-23.907-53.294-53.293-53.294z" fill="#fdd1a3"/><path d="m342.943 405.573-15.5-13.126c-6.322-5.355-15.787-4.567-21.141 1.753-1.952 2.306-3.079 5.03-3.427 7.82h-46.812v30h46.812c.349 2.79 1.475 5.514 3.427 7.82 2.968 3.503 7.197 5.307 11.455 5.307 3.425 0 6.867-1.167 9.686-3.554l15.5-13.126c3.366-2.85 5.307-7.037 5.307-11.447s-1.94-8.596-5.307-11.447z" fill="#ff435b"/></g></svg>